<?xml version="1.0" encoding="utf-8"?>
<!-- Generator: Adobe Illustrator 23.0.5, SVG Export Plug-In . SVG Version: 6.00 Build 0)  -->
<svg version="1.1" id="Layer_1" xmlns="http://www.w3.org/2000/svg" xmlns:xlink="http://www.w3.org/1999/xlink" x="0px" y="0px"
	 viewBox="0 0 566.93 425.2" style="enable-background:new 0 0 566.93 425.2;" xml:space="preserve">
<path d="M244,167c7.22-0.12,16.38-0.18,27,0c28.2,0.47,34.29,2.05,40,6c2.55,1.77,9.67,7.23,13,17c0.94,2.76,3.08,9.34,1,17
	c-3.53,12.98-16.23,18.29-18,19c-21.16-14.34-26.75-19.65-26-21c0.79-1.41,7.9,2.51,15-1c2.56-1.26,6.23-4.04,6-7
	c-0.31-3.91-7.31-6.14-10-7c-12.31-3.93-18.7,0.77-27-1C259.07,187.73,251.3,182.98,244,167z"/>
<path d="M268.5,204.5c-9.67,0-19.33,0-29,0c10.96,12.71,19.26,22.43,24,28c11.65,13.68,15.08,17.83,22,21
	c13.29,6.08,30.25,4.32,32-1c1.2-3.65-5.11-7.95-19-20C285.76,221.45,275.64,211.67,268.5,204.5z"/>
</svg>
